<svg xmlns="http://www.w3.org/2000/svg" viewBox="0 0 30.87 107.5" x="0px" y="0px"><title>left laurel</title><g data-name="Layer 2"><g data-name="Layer 5"><path d="M30.77,0A19.57,19.57,0,0,1,19.51,11C19.52,5.8,25.24.14,30.77,0ZM19.3,76.84c-3.8-4.71-8.93-7.6-12.78-5.82C9.69,77.31,16.12,79.59,19.3,76.84Zm-6-9.28c-2.69-5.23-7.13-9-11.25-8C3.92,66.22,9.66,69.62,13.33,67.56ZM9.44,57.48C7.86,51.89,4.23,47.32,0,47.49.5,54.38,5.43,58.76,9.44,57.48ZM7.62,46.92C7.16,41.17,4.47,36,.29,35.31-.54,42.17,3.44,47.4,7.62,46.92Zm.25-10.68c.66-5.74-1-11.4-4.93-12.87C.78,30,3.69,35.89,7.87,36.24ZM10.2,25.77C12,20.23,11.57,14.29,8,12.06,4.46,18.21,6.17,24.61,10.2,25.77Zm4.4-9.92c2.89-5.15,3.82-11.16.75-14.08C10.51,7.24,10.88,13.92,14.6,15.85Zm2.52,1.44c3.76,2,8.59.15,11.86-3.49C26,10.89,20.05,12.16,17.12,17.29ZM13,26.68c4.07,1.19,8.43-1.49,10.81-5.6C20.19,18.85,14.77,21.16,13,26.68Zm-2.2,9.91c4.22.37,8-3.09,9.46-7.51C16.27,27.6,11.45,30.87,10.75,36.59Zm-.24,10.12c4.21-.46,7.23-4.59,7.82-9.18C14.18,36.85,10.09,41,10.51,46.71Zm1.72,10c4-1.28,6.2-5.94,5.9-10.56C13.93,46.29,10.7,51.11,12.23,56.7Zm3.69,9.55c3.71-2,4.87-7.11,3.67-11.6C15.51,55.62,13.27,61,15.92,66.25ZM21.57,75c3.21-2.76,3.26-8,1.17-12.24C18.92,64.54,17.81,70.31,21.57,75Zm8.74,9.48C7.29,67.39,2.94,35.68,18.07,13A53.42,53.42,0,0,0,29.42,85.69c.49.38,1.1.42,1.35.09s0-.88-.44-1.25Z"/></g></g><text x="0" y="101" fill="#000000" font-size="5px" font-weight="bold" font-family="'Helvetica Neue', Helvetica, Arial-Unicode, Arial, Sans-serif">Created by Darrin Loeliger</text><text x="0" y="106" fill="#000000" font-size="5px" font-weight="bold" font-family="'Helvetica Neue', Helvetica, Arial-Unicode, Arial, Sans-serif">from the Noun Project</text></svg>