<svg id="Layer_1" height="512" viewBox="0 0 512 512" width="512" xmlns="http://www.w3.org/2000/svg" xmlns:xlink="http://www.w3.org/1999/xlink" data-name="Layer 1"><linearGradient id="linear-gradient" gradientUnits="userSpaceOnUse" x1="49.293" x2="366.982" y1="517.021" y2="199.332"><stop offset=".041" stop-color="#4158d0"/><stop offset="1" stop-color="#c850c0"/></linearGradient><path d="m483.388 479.105h-154.525a61.879 61.879 0 0 0 21.531-51.194 60.472 60.472 0 0 0 -54.814-60.462l-70.017-6.712v-26.4a62.358 62.358 0 0 0 17.87-12.317l61.343-61.449a7.314 7.314 0 0 0 -.588-10.752l15.488-16.9c16.14-15.787 6.818-49.142-16.59-49.919a15.547 15.547 0 0 0 -11.14 4.526l-25.093 25.093a7.182 7.182 0 0 0 -10.056.072l-35.036 34.949a85.018 85.018 0 0 0 -41.06-50.411l5.921-24.312c21.992-5.744 38.1-25.028 37.848-48.358-.19-16.221 1.749-56.236-4.934-65.353-31.686-70.263-127.651-43.27-124.289 32.97-.019-.008 0 14.468 0 14.471-.086 23.776 13.841 43.8 40.055 58.345l-5.928 23.637a82.469 82.469 0 0 0 -69.736 81.839v82.132a87.354 87.354 0 0 0 39.481 73h-33.409a33.8 33.8 0 0 0 -32.2 23.166l-11.72 35.266c-1.363 5.95 3.161 9.541 6.85 9.467h55.979c99.43-.006 299.575 0 398.769 0 9.095-.072 9.752-14.208 0-14.394zm-181.198-281.472c.147-.151.741-.186 1.012-.246 10.752 1.96 13.489 18.445 5.861 25.8l-15.11 16.49-16.907-16.9zm-135.649-3.1a46.22 46.22 0 0 1 -22.944-3.478l4.923-19.628a59.7 59.7 0 0 0 22.734 3.752zm-16.311-160.267c16.881-3.836 39.919.763 53.138 24.591l-93.691 24.051c1.816-27.53 20.843-44.163 40.553-48.642zm-40.593 63.515 99.089-25.437c2.65 14.105.9 37.918 1.357 52.514.561 31.255-38.484 44.723-62.978 30.235-46.114-22.677-36.096-52.446-37.468-57.312zm-35.609 254.819v-82.132a68.2 68.2 0 0 1 59.671-68 60.613 60.613 0 0 0 37.795 6.1c19.882 9.526 34.166 28.77 38.269 51.128l-9.27 9.267-41.088-40.055c-6.826-6.657-16.862 3.669-10.05 10.3l46.176 45.017a7.2 7.2 0 0 0 10.114-.064c.183-.728 55.5-55.486 56.227-56.209l27.221 27.217c.058.058.307.309.369.366l-56.162 56.265a46.3 46.3 0 0 1 -65.459 0l-52.432-52.431a7.2 7.2 0 0 0 -10.177 10.177l52.432 52.432a60.874 60.874 0 0 0 53.507 16.791v28.51a7.2 7.2 0 0 0 6.512 7.165l76.517 7.336c23.83 2.3 41.8 22.132 41.819 46.665 2.5 26.22-19.768 51.444-46.324 50.66h-195.069l13.034-39.105h164.231c9.35-.031 9.459-14.351 0-14.394 0 0-124.845 0-124.846 0a73.091 73.091 0 0 1 -73.017-73.006zm-26.855 100.7a19.689 19.689 0 0 1 18.537-13.3h26.776l-13.033 39.105h-40.86z" fill="url(#linear-gradient)"/></svg>