<svg clip-rule="evenodd" fill-rule="evenodd" height="512" image-rendering="optimizeQuality" shape-rendering="geometricPrecision" text-rendering="geometricPrecision" viewBox="0 0 43.3492 43.3492" width="512" xmlns="http://www.w3.org/2000/svg" xmlns:xlink="http://www.w3.org/1999/xlink"><linearGradient id="id0" gradientUnits="userSpaceOnUse" x1="2.24" x2="41.09" y1="11.697" y2="31.651"><stop offset="0" stop-color="#f4505d"/><stop offset=".501961" stop-color="#be73ed"/><stop offset="1" stop-color="#15c0e9"/></linearGradient><g id="Layer_x0020_1"><path d="m20.9835 43.3492c-1.674 0-3.3389-.0239-4.9227-.0599h-.0004-.0019l-.0117-.0003c-2.78-.0635-5.3092-.1644-7.1973-.2398-1.4098-.0565-2.4291-.097-2.9202-.097-.2069 0-.3762-.1658-.3803-.3729l-.0084-.5011c-.0192-.9445.672-1.7568 1.6076-1.8903 2.3884-.341 4.7302-1.8205 5.3679-2.249l-1.0621-18.2708c-.1099-1.8753.8663-5.1489 2.7051-6.4093.3068-1.2929.5545-3.4188-.017-4.0529-.0033-.0037-.0065-.0074-.0096-.0112l-.003-.0036c-.0124-.0153-.0238-.0318-.034-.0495-.074-.1292-1.8179-3.182-1.0219-5.0168.022-.0502.0534-.095.0941-.1315.1792-.1613 4.4163-3.9464 6.9235-3.9932.0608-.002.1227.0128.1783.0407.3647.1835 3.524 1.8198 3.9591 3.4988 1.0789 1.6025 1.5881 3.6994 1.4345 5.9138-.1395 2.0093-.8368 3.7993-1.8171 4.6712-.8106.7211-1.7576.7865-2.6477.201l-.728 1.2463c1.62 1.7512 2.49 3.906 2.8297 6.8224l.9126.4172 3.4492-3.2235 1.2929-2.2996c.0088-.0165.0196-.0324.0314-.0474.1953-.2503 1.9438-2.438 3.2756-2.3006.2973.0309.71.1876.9872.7569.0262.0518.0387.109.0387.1668l.0004 2.7406c0 .0973-.038.1914-.1043.2621l-1.3753 1.4467-3.7708 5.319c-.0067.0087-.0129.0172-.0198.0255-.9021 1.0671-2.1725 1.4616-3.5587 1.4615-.2267 0-.4564-.0109-.6881-.0308l.1395 2.7279c.0544 1.0674 3.5795 2.0344 6.4115 2.8112 3.8501 1.0561 7.4869 2.0536 7.4869 3.9282l.0001 3.3782c0 .428-.1823.8201-.5407 1.1648-1.3625 1.3089-5.5007 2.0312-12.6509 2.2081-1.197.0296-2.4181.0423-3.6339.0421zm-6.3568-34.8197c4.0998-.7547 6.7272-2.7922 7.94-3.9559.0031-.0026.0059-.0051.0089-.0076.3438-.3106.64-.6283.8827-.9462-.3922-1.0828-2.5172-2.3749-3.4443-2.8555-1.8329.1165-5.0728 2.6703-6.2721 3.7362-.4232 1.1402.3996 3.1084.8848 4.029zm.3969 4.3142c.6669-.1943 1.5375-.1784 2.5664.4432.8897.5377 1.6609 1.1075 2.3251 1.7277l.8438-1.444c.0574-.098.1552-.1653.267-.1834.1122-.0185.2268.0145.312.0893.6994.613 1.3723.6397 2.0032.0798.8248-.7336 1.4387-2.3648 1.5635-4.1557.1297-1.8689-.2456-3.6386-1.0625-5.0458-.2207.2598-.4734.5186-.7526.7715-1.2514 1.199-3.9242 3.2762-8.0681 4.1021.3966 1.0266.1846 2.6555.0022 3.6153zm13.5682 6.643 2.7704.1917 1.1652-1.2257v-2.4942c-.1239-.2136-.2547-.2522-.3448-.2618-.6453-.0673-1.8913 1.1151-2.5796 1.9899zm-5.7948 3.5139c-.0063-.0027-.0125-.0055-.0186-.0085l-4.927-2.2524c-.1912-.0871-.2754-.3128-.1872-.5037.0874-.1912.3129-.275.504-.1877l4.3166 1.9733c-.536-3.7856-2.1012-6.1577-5.288-8.0837-.9086-.5491-1.72-.5927-2.4814-.1339-1.6497.9953-2.5993 4.1622-2.5033 5.82l1.0556 18.1263 11.9756-.0002c.2098 0 .3802.1704.3802.3804.0004.21-.1704.3803-.3802.3803h-7.2807l-1.3725 4.0261c8.0088.1621 18.0902-.0055 20.1514-1.9862.207-.1988.3069-.4002.3069-.6165l.0004-3.3782c0-1.2947-3.8414-2.3483-6.9278-3.1948-3.6965-1.0136-6.8879-1.8891-6.9701-3.5057l-.1463-2.8637c-3.4525-.5714-7.0668-2.8733-7.3-3.0236-.177-.1138-.2278-.349-.1139-.5256.1143-.1766.3495-.2272.5259-.1136.0565.0364 3.8772 2.4694 7.2536 2.9497.0364.0001.0715.0051.1046.0146 1.5626.204 3.0201-.0222 3.9518-1.1141l3.3857-4.7766-2.7083-.1876-3.5585 3.3259c-.1123.1052-.2776.1323-.4172.0683zm-5.6379 15.5102h-4.1302c-.5417.3746-3.0823 2.0457-5.7738 2.4299-.564.0805-.9663.5528-.9555 1.1227l.0034.133c.5672.0125 1.4473.0478 2.5761.0929 1.7259.0689 4.1733.1666 6.9134.2303z" fill="url(#id0)"/></g></svg>