<svg id="Layer_1" height="512" viewBox="0 0 512 512" width="512" xmlns="http://www.w3.org/2000/svg" xmlns:xlink="http://www.w3.org/1999/xlink" data-name="Layer 1"><linearGradient id="linear-gradient" gradientUnits="userSpaceOnUse" x1="91.529" x2="364.16" y1="450.99" y2="178.359"><stop offset=".041" stop-color="#4158d0"/><stop offset="1" stop-color="#c850c0"/></linearGradient><path d="m425.734 271.285c-12.7-.516-26.77.073-38.51 6.374-22.863-31.893-120.614-158.942-226.865-158.942-96.486-1.154-91.691 75.677-70.66 119.962l31.956 61.42c-15.215-1.641-58.71-8.907-60.434-11.391-22.377-9.433-43.842 16.468-42.681 37.579l.028 47.064c.162 1.837 2.467 18 34 19.808a7.25 7.25 0 0 0 7.492-8.5c-2.538-13.3 6.186-23.358 19.65-18.736l116.45 23.954c28.385 5.889 64.082-4.358 71.785-33.723l26.566 27.321a32.193 32.193 0 0 0 22.954 9.695h53.884c2.558-.021 5.34-1.421 6.207-3.914a44.99 44.99 0 0 0 18.166 3.9c16.226-.471 45.832 2.09 58.441-3.876a1.977 1.977 0 0 0 .624-.215.172.172 0 0 0 .067-.031c65.881-28.598 41.796-120.834-29.12-117.749zm-370.979 85.978a29.982 29.982 0 0 0 -9.431 20.575c-8.413-1.6-11.66-4.54-12.391-6.044l-.007-45.774c-.506-10.945 9.985-28.321 22.321-24.236 2.886 1.49 9.1 3.811 29.142 7.291l-8.824 41.5c-8.002-.625-15.224 1.637-20.81 6.688zm144.287 18.512-109.333-22.487 8.913-41.919c10.213 1.554 22.493 3.238 35.744 4.883a.583.583 0 0 0 .07.009c24.652 3.069 45.942 5.241 46.157 5.261a7.2 7.2 0 1 0 1.462-14.316c-.207-.023-19.755-2.019-43.022-4.879l-36.459-70.075c-16.274-36.544-26.369-100.488 57.786-99.141 99.155 0 195.386 125.6 215.363 153.238-14.528 13.64-23.2 30.064-26.358 50.241a53.278 53.278 0 0 0 -.027 12.461 28.358 28.358 0 0 0 -10.438-.787c-1.075.172-10.472.091-25.744-35.432a38.834 38.834 0 0 1 8.589-43.679c6.739-6.544-3.18-16.866-9.994-10.36-17.081 16.315-20.99 42.861-9.917 63.859l-26.988 19.953-7.162-7.364a70.21 70.21 0 0 1 -12.214-62.859v-.011a69.213 69.213 0 0 1 26.03-37.154 7.2 7.2 0 0 0 1.6-10.053c-9.891-12.557-32.89 21.667-36.47 30.072l-42.69-59.678c-5.493-7.619-17.16.683-11.708 8.371l48.612 67.961a84.511 84.511 0 0 0 14.122 70.219c2.419 29.485-33.566 38.847-55.924 33.666zm118.423 3a17.724 17.724 0 0 1 -12.637-5.338l-19.853-20.416 23.373-17.283c10.557 19.06 21.132 27.952 32.07 26.841 9.994-1.058 16.72 8.525 20.438 16.2zm77.955 0c-19.984.213-34.642-21.09-31.8-40.19 2.9-18.531 11.485-33.434 26.221-45.562 8.078-6.549 19.6-7.65 31.287-7.462 15.924 30.528 23.775 61.353 23.424 91.774-13.14 2.923-38.852.865-49.132 1.441zm63.543-8.126c-.721-28.191-7.944-56.561-21.484-84.635 41.899 6.247 57.763 58.926 21.484 84.636z" fill="url(#linear-gradient)"/></svg>